<?xml version="1.0" encoding="UTF-8"?>
<svg xmlns="http://www.w3.org/2000/svg" xmlns:xlink="http://www.w3.org/1999/xlink" width="24px" height="24px" viewBox="0 0 24 24" version="1.1">
<g id="surface1">
<path style=" stroke:none;fill-rule:nonzero;fill:rgb(95.294118%,95.686275%,96.078432%);fill-opacity:1;" d="M 0.265625 13.777344 C 0.511719 15.382812 1.078125 16.882812 1.898438 18.210938 L 22.078125 18.210938 C 22.898438 16.882812 23.464844 15.382812 23.707031 13.777344 Z M 0.265625 13.777344 "/>
<path style=" stroke:none;fill-rule:nonzero;fill:rgb(95.294118%,95.686275%,96.078432%);fill-opacity:1;" d="M 18.476562 21.90625 L 5.496094 21.90625 C 7.359375 23.128906 9.589844 23.839844 11.988281 23.839844 C 14.382812 23.839844 16.613281 23.128906 18.476562 21.90625 Z M 18.476562 21.90625 "/>
<path style=" stroke:none;fill-rule:nonzero;fill:rgb(86.274511%,18.82353%,15.294118%);fill-opacity:1;" d="M 1.898438 18.210938 C 2.8125 19.691406 4.042969 20.953125 5.496094 21.90625 L 18.476562 21.90625 C 19.929688 20.953125 21.160156 19.691406 22.074219 18.210938 Z M 1.898438 18.210938 "/>
<path style=" stroke:none;fill-rule:nonzero;fill:rgb(15.686275%,22.352941%,56.862748%);fill-opacity:1;" d="M 13.207031 0.195312 C 12.804688 0.152344 12.398438 0.132812 11.988281 0.132812 C 5.4375 0.132812 0.132812 5.4375 0.132812 11.988281 C 0.132812 12.59375 0.179688 13.191406 0.265625 13.777344 L 13.207031 13.777344 Z M 13.207031 0.195312 "/>
<path style=" stroke:none;fill-rule:nonzero;fill:rgb(95.294118%,95.686275%,96.078432%);fill-opacity:1;" d="M 3.738281 6.214844 L 3.371094 5.089844 L 4.324219 4.394531 L 3.144531 4.394531 L 3.074219 4.175781 C 2.699219 4.601562 2.355469 5.054688 2.042969 5.535156 L 1.820312 6.214844 L 2.78125 5.519531 Z M 3.738281 6.214844 "/>
<path style=" stroke:none;fill-rule:nonzero;fill:rgb(95.294118%,95.686275%,96.078432%);fill-opacity:1;" d="M 6.125 2.675781 L 7.078125 3.371094 L 6.710938 2.246094 L 7.664062 1.550781 L 6.484375 1.550781 L 6.464844 1.496094 C 6.09375 1.691406 5.734375 1.90625 5.386719 2.140625 L 5.535156 2.25 L 5.175781 3.371094 Z M 6.125 2.675781 "/>
<path style=" stroke:none;fill-rule:nonzero;fill:rgb(95.294118%,95.686275%,96.078432%);fill-opacity:1;" d="M 2.1875 10.78125 L 1.824219 11.90625 L 2.78125 11.210938 L 3.738281 11.90625 L 3.371094 10.78125 L 4.324219 10.085938 L 3.144531 10.085938 L 2.78125 8.964844 L 2.414062 10.085938 L 1.234375 10.085938 Z M 2.1875 10.78125 "/>
<path style=" stroke:none;fill-rule:nonzero;fill:rgb(95.294118%,95.686275%,96.078432%);fill-opacity:1;" d="M 8.878906 10.78125 L 8.515625 11.90625 L 9.472656 11.210938 L 10.429688 11.90625 L 10.0625 10.78125 L 11.015625 10.085938 L 9.835938 10.085938 L 9.472656 8.964844 L 9.105469 10.085938 L 7.925781 10.085938 Z M 8.878906 10.78125 "/>
<path style=" stroke:none;fill-rule:nonzero;fill:rgb(95.294118%,95.686275%,96.078432%);fill-opacity:1;" d="M 8.878906 5.089844 L 8.515625 6.214844 L 9.472656 5.519531 L 10.429688 6.214844 L 10.0625 5.089844 L 11.015625 4.394531 L 9.835938 4.394531 L 9.472656 3.273438 L 9.105469 4.394531 L 7.925781 4.394531 Z M 8.878906 5.089844 "/>
<path style=" stroke:none;fill-rule:nonzero;fill:rgb(95.294118%,95.686275%,96.078432%);fill-opacity:1;" d="M 5.527344 7.933594 L 5.160156 9.0625 L 6.121094 8.367188 L 7.074219 9.0625 L 6.710938 7.933594 L 7.667969 7.242188 L 6.484375 7.242188 L 6.121094 6.121094 L 5.753906 7.242188 L 4.574219 7.242188 Z M 5.527344 7.933594 "/>
<path style=" stroke:none;fill-rule:nonzero;fill:rgb(86.274511%,18.82353%,15.294118%);fill-opacity:1;" d="M 23.6875 10.082031 L 13.207031 10.082031 L 13.207031 13.777344 L 23.707031 13.777344 C 23.796875 13.191406 23.839844 12.59375 23.839844 11.988281 C 23.839844 11.335938 23.785156 10.703125 23.6875 10.082031 Z M 23.6875 10.082031 "/>
<path style=" stroke:none;fill-rule:nonzero;fill:rgb(95.294118%,95.686275%,96.078432%);fill-opacity:1;" d="M 13.207031 10.082031 L 23.6875 10.082031 C 23.425781 8.472656 22.839844 6.972656 22.003906 5.648438 L 13.207031 5.648438 Z M 13.207031 10.082031 "/>
<path style=" stroke:none;fill-rule:nonzero;fill:rgb(86.274511%,18.82353%,15.294118%);fill-opacity:1;" d="M 13.207031 5.648438 L 22 5.648438 C 21.058594 4.15625 19.789062 2.894531 18.296875 1.953125 L 13.207031 1.953125 Z M 13.207031 5.648438 "/>
<path style=" stroke:none;fill-rule:nonzero;fill:rgb(95.294118%,95.686275%,96.078432%);fill-opacity:1;" d="M 13.207031 0.195312 L 13.207031 1.953125 L 18.296875 1.953125 C 16.792969 1.003906 15.0625 0.386719 13.207031 0.195312 Z M 13.207031 0.195312 "/>
</g>
</svg>
